<?xml version="1.0" encoding="utf-8"?>
<!-- Generator: Adobe Illustrator 24.2.0, SVG Export Plug-In . SVG Version: 6.00 Build 0)  -->
<svg version="1.1" id="Layer_1" xmlns="http://www.w3.org/2000/svg" xmlns:xlink="http://www.w3.org/1999/xlink" x="0px" y="0px"
	 viewBox="0 0 666.4 304.6" style="enable-background:new 0 0 666.4 304.6;" xml:space="preserve">
<style type="text/css">
	.st0{fill:#0084FF;}
</style>
<path d="M290.5,158.1c0.5,3.5,5.6,5.4,11.2,5.4c4.2,0,8.1-0.4,12-1.7l2.1,10.7c-5.2,2.1-10.9,2.8-16.4,2.8
	c-15.4,0-24.1-8.5-24.1-22.4c0-10.2,6.6-23.3,22.7-23.3c14.1,0,20.2,10.4,20.2,22.4c0,2.7-0.4,5-0.6,6L290.5,158.1L290.5,158.1z
	 M304.4,147.8c0-2.9-1.3-8.3-7.2-8.3c-5.5,0-7.7,5.1-8,8.3H304.4z M322.2,145.5c0-5.8-0.2-10.8-0.4-14.8h13.8l0.7,5.6h0.4
	c1.6-2.3,5.8-6.6,13.1-6.6c10.2,0,15.7,6.9,15.7,18.9v25.8h-16v-23.8c0-5.1-1.8-8-5.6-8c-3.1,0-4.5,2.1-5.2,3.8
	c-0.4,0.8-0.4,2-0.4,3.2v24.8h-16L322.2,145.5z M415.2,167.9c0,7.7-1.5,14.9-6.8,19.5c-5.1,4.3-11.7,5.4-18.5,5.4
	c-6,0-12.2-1.2-16.3-3.2l3-12.1c2.7,1.4,7.6,3.1,12.6,3.1c5.7,0,10.1-3,10.1-9.9v-2h-0.2c-2.7,3.4-6.6,4.9-10.9,4.9
	c-10.7,0-18.4-8.5-18.4-21.2c0-13.8,8.9-22.9,19.8-22.9c5.3,0,9,2,11.3,5.6h0.2l0.5-4.6h13.9c-0.3,2.7-0.4,6.5-0.4,13.5L415.2,167.9
	L415.2,167.9z M399.2,148.7c0-0.6-0.1-1.4-0.2-2c-0.7-3.1-2.8-5-5.7-5c-3.8,0-7.1,3.7-7.1,10.7c0,5.7,2.7,9.9,7.1,9.9
	c2.9,0,5.1-2,5.6-4.4c0.3-0.9,0.3-2.3,0.3-3.3L399.2,148.7L399.2,148.7z M422,113.3h16v61h-16V113.3z M467.6,160.9
	c2.5,1.5,8.2,3.3,12.2,3.3c3.4,0,4.7-0.8,4.7-2.4c0-1.6-1-2.3-5.7-3.8c-9.6-3-12.9-8.3-12.8-13.3c0-8.7,7.4-15,18.8-15
	c5.4,0,10.2,1.1,13.1,2.5l-2.6,10.8c-2-1-6.1-2.4-9.7-2.4c-2.8,0-4.4,0.7-4.4,2.5c0,1.4,1.4,2.3,6.6,4c8.6,2.8,11.9,7.3,12,13.6
	c0,8.3-6.5,14.6-20,14.6c-6,0-11.5-1.3-14.9-3.1L467.6,160.9L467.6,160.9z M504.1,113.3h16v22h0.2c1.5-1.8,3.2-3.2,5.2-4.1
	c2-1,4.4-1.5,6.7-1.5c9.9,0,15.3,7,15.3,19.4v25.3h-16v-23.5c0-5.1-1.7-8.3-5.7-8.3c-3,0-4.4,1.8-5.2,3.5c-0.4,0.7-0.4,1.9-0.4,2.6
	v25.8h-16L504.1,113.3L504.1,113.3z M444.5,130.1h16v43.7h-16V130.1z M445,112.8h15.4v13.4H445V112.8z M103.8,152
	c0,15.9-11.4,23.3-23.7,23.3c-13.1,0-23.2-8.4-23.2-22.6c0-13.9,9.2-23.1,24.1-23.1C94.7,129.6,103.8,138.8,103.8,152 M73.5,152.4
	c0,6.5,2.1,11.6,7.1,11.6c4.3,0,6.7-4.5,6.7-11.6c0-6-2-11.6-6.8-11.6C75.2,140.9,73.5,146.7,73.5,152.4 M173.2,158
	c0.5,3.5,5.6,5.4,11.2,5.4c4.2,0,8.1-0.4,12-1.7l2,10.7c-5.2,2.1-10.9,2.8-16.4,2.8c-15.4,0-24.1-8.5-24.1-22.4
	c0-10.2,6.6-23.3,22.7-23.3c14.1,0,20.2,10.4,20.2,22.4c0,2.7-0.4,5-0.6,6.1H173.2L173.2,158z M187.2,147.8c0-2.9-1.4-8.3-7.3-8.3
	c-5.5,0-7.7,5.1-8,8.3H187.2z M204.9,145.4c0-5.8-0.2-10.8-0.4-14.8h13.8l0.7,5.6h0.4c1.6-2.3,5.8-6.6,13.1-6.6
	c10.2,0,15.7,6.9,15.7,18.9v25.8h-16v-23.8c0-5.1-1.8-8-5.6-8c-3.1,0-4.5,2.1-5.2,3.8c-0.4,0.8-0.4,2-0.4,3.2v24.8h-16v-28.9H204.9z
	 M107.8,192.4h16v-21.3h0.2c1.6,2.2,5.4,4.2,10.4,4.2c9.5,0,19.9-7.4,19.9-23.4c0-14.2-8.9-22.3-18-22.3c-5.6,0-9.2,2-12.5,5.7v-4.7
	h-16L107.8,192.4L107.8,192.4z M130.3,163.1c-3.2,0-5.6-2.4-6.2-5.2c-0.2-0.8-0.3-1.7-0.3-2.7v-5.4c0-0.7,0-1.4,0.2-2
	c0.5-3.1,3.3-5.7,6.5-5.7c5.1,0,7.6,4.4,7.6,10.6C138,158.9,135.1,163.1,130.3,163.1"/>
<path class="st0" d="M269.8,54.7L107.9,84.2v38.3h15.8V97l130.5-23.8v149.5l-146.3-24v15.4l161.9,26.8V54.7z"/>
</svg>
