<?xml version="1.0" encoding="utf-8"?>
<!-- Generator: Adobe Illustrator 24.2.0, SVG Export Plug-In . SVG Version: 6.00 Build 0)  -->
<svg version="1.1" id="Capa_1" xmlns="http://www.w3.org/2000/svg" xmlns:xlink="http://www.w3.org/1999/xlink" x="0px" y="0px"
	 viewBox="0 0 1133.86 850.39" style="enable-background:new 0 0 1133.86 850.39;" xml:space="preserve">
<style type="text/css">
	.st0{fill:#924015;}
	.st1{fill:#8D8D8E;}
	.st2{font-size:100.9271px;}
	.st3{fill:#3D4163;}
</style>
<text transform="matrix(1 0 0 1 229.9656 616.6566)" class="st2">ViajeroSecrets</text>
<g>
	<path class="st3" d="M635.78,358.87c-0.35-1.17-1.52-2.17-2.9-1.94c-0.01,0-0.01,0-0.02,0c-16.79-10.97-35.85-18.74-56.31-22.46
		c-0.01,0-0.03-0.01-0.02-0.03c0.11-2.17,0.25-5.23,0.36-8.21c0.1-2.64-0.05-10.32-0.06-11.11c0-0.03-0.03-0.04-0.05-0.02
		c-0.23,0.23-1.3,1.23-3.34,1.95c-1.31,0.46-3.16,0.58-3.42,0.59c-0.02,0-0.03,0.01-0.03,0.03c0.03,0.47,0.47,6.64,0.8,9.21
		c0.27,2.11,0.61,4.65,0.9,6.73c0,0.02-0.01,0.04-0.03,0.03c-5.6-0.83-11.31-1.35-17.09-1.56c-0.02,0-0.03-0.02-0.03-0.03
		c0.37-1.87,0.83-4.19,1.26-6.48c0.29-1.54,0.74-4.98,1.05-7.48c0-0.02-0.01-0.03-0.03-0.03c-1.63,0.08-3.26-0.01-4.88-0.31
		c-0.84-0.16-1.68-0.38-2.51-0.64c-0.02-0.01-0.04,0-0.04,0.02c-0.1,1.86-0.31,5.84-0.3,7.77c0.01,2.24,0.05,4.99,0.09,7.08
		c-0.04,0-0.08,0-0.11,0c-84.71,0-153.63,68.91-153.65,153.62c0,0.02,0.01,0.03,0.03,0.03h5.94c0.02,0,0.03-0.01,0.03-0.03
		c0.01-25.25,6.39-49.04,17.62-69.84c0.01-0.01,0.02-0.02,0.04-0.01c5.22,2.17,10.75,1.9,16.3,1.26c5.52-0.63,11.15-1.47,16.53,0.41
		c5.5,1.92,10.19,5.59,15.72,7.48c4.53,1.55,11.43,2.44,13.51,7.53c1.04,2.54-0.16,5.32-0.98,7.74c-0.99,2.91-1.6,5.89-1.61,8.98
		c-0.01,5.89,1.9,11.77,5.12,16.67c3.21,4.88,7.58,8.88,12.47,12.04c3.63,2.34,7.98,3.92,11.48,6.54c1.11,0.83,2.68-0.08,2.53-1.46
		l0-0.01c-0.22-2-1.39-3.77-3.14-4.76c-0.66-0.37-1.32-0.73-1.98-1.07c-5.2-2.71-10.08-5.65-14.08-10.02
		c-3.8-4.14-6.55-9.37-7.24-15c-0.35-2.84-0.18-5.72,0.59-8.47c0.85-3.03,2.25-5.93,2.23-9.14c-0.04-6.37-5.56-10.36-11-12.31
		c-2.91-1.04-5.97-1.67-8.8-2.93c-2.72-1.21-5.27-2.76-7.91-4.14c-2.97-1.55-6.09-2.94-9.42-3.46c-3.3-0.51-6.58-0.42-9.89-0.09
		c-5.8,0.58-12.36,2.09-17.98-0.15c-0.02-0.01-0.03-0.03-0.02-0.05c7.21-12.33,16.16-23.54,26.51-33.27
		c0.15,0.18,0.29,0.37,0.45,0.55c1.39,1.58,3.02,2.97,4.52,4.46c1.12,1.11,2.01,2.33,2.84,3.62c3.27,5.03,6.87,11.49,14.75,10.43
		c3.36-0.45,6.04-2.45,8.51-4.36c2.13-1.65,4.4-3.61,7.24-3.92c3.26-0.35,6.63,1.08,9.58,2.15c3.34,1.21,6.78,2.43,10.45,2.43
		c1.97,0,3.86-0.42,5.67-1.07c1.81-0.66,3.67-1.66,5.65-1.88c3.8-0.41,7.21,2.68,9.83,4.65c7.13,5.35,14.08,11.04,21.63,15.93
		c3.43,2.22,7.14,4.12,11.2,5.31c4.44,1.3,9.11,1.3,13.7,1.85c3.42,0.42,7.08,1.29,9.52,3.56c2.72,2.53,2.03,6.16,0.75,9.13
		c-1.56,3.63-4.22,6.81-5.63,10.51c-1.5,3.94-1.03,8.11-1.92,12.13c-1.42,6.47-7.09,11.16-12.86,14.95
		c-1.51,0.99-3.04,1.93-4.59,2.87c-1.26,0.77-1.84,2.19-1.02,3.42c0.73,1.1,2.63,1.67,3.9,0.9c6.39-3.89,13.04-8.07,17.08-14.05
		c2.23-3.3,3.19-6.86,3.56-10.65c0.19-2.02,0.23-4.06,0.68-6.05c0.44-1.91,1.26-3.68,2.26-5.41c2.01-3.47,4.42-6.89,5.11-10.8
		c0.69-3.88-0.23-7.73-3.44-10.6c-6.52-5.84-16.06-4.24-24.24-6.21c-8.24-1.99-14.74-7.6-21.06-12.35l-11.25-8.44
		c-3.32-2.49-6.84-5.12-11.35-5.58c-2.23-0.23-4.36,0.22-6.41,0.97c-1.82,0.67-3.65,1.61-5.63,1.87c-3.18,0.41-6.46-0.88-9.34-1.92
		c-3.39-1.22-6.82-2.53-10.54-2.63c-3.81-0.11-7.01,1.35-9.9,3.39c-2.21,1.55-4.46,3.83-6.9,4.71c-1.28,0.46-2.33,0.51-3.59,0.04
		c-0.06-0.02-0.96-0.51-1.07-0.59c-0.55-0.39-1.09-0.91-1.49-1.36c-1.92-2.15-3.19-4.87-4.88-7.22c-2.19-3.05-5.71-5.25-7.72-8.37
		c-0.01-0.01-0.01-0.03,0.01-0.04c25.96-22.66,59.89-36.4,96.97-36.4c29.15,0,56.35,8.49,79.27,23.13c0.01,0.01,0.02,0.02,0.01,0.04
		c-0.5,1-0.86,2.08-1.1,3.16c-0.61,2.77-0.46,5.95-2.24,8.32c-1.45,1.94-3.64,3.25-5.55,4.68c-2.15,1.62-4.31,3.4-5.55,5.85
		c-1.56,3.06-1.65,6.5-1.31,9.85c0.36,3.49,0.83,6.97,1.27,10.45c0.88,6.85,1.82,14.12,5.05,20.33c1.34,2.58,3.31,5.08,5.95,6.42
		c3.29,1.68,6.87,1.38,10.35,0.52c3.59-0.88,7.16-1.92,10.73-2.89c3.57-0.97,7.18-2.23,10.81-2.9c1.25-0.23,1.67,0.04,2.45,0.95
		c1,1.16,2.06,2.19,3.61,2.51c0.96,0.2,1.89,0.08,2.84-0.09c0.39-0.07,0.92-0.26,1.32-0.14c0.96,0.29,1.85,2.15,2.36,2.89
		c3.71,5.37,7.44,10.88,9.92,16.95c1.33,3.25,2.35,6.72,2.68,10.22c0.35,3.75,0.11,7.54,0.8,11.26c1.4,7.48,7.49,11.48,13.79,14.74
		c0.05,0.03,0.1,0.04,0.15,0.06c0,0.44,0.02,0.88,0.02,1.32h1.82c2.32,0,4.18-1.92,4.12-4.25c-1.39-50.81-27.57-95.54-66.85-122.51
		C635.79,358.88,635.78,358.87,635.78,358.87z M687.65,468.61c-0.64-3.03-0.42-6.19-0.62-9.27c-0.21-3.2-0.8-6.37-1.78-9.43
		c-1.95-6.1-5.16-11.71-8.67-17.03c-1.68-2.56-3.32-5.45-5.42-7.68c-1.1-1.17-2.6-1.99-4.24-2.02c-0.83-0.02-2.52,0.61-3.1,0.38
		c-0.48-0.19-0.95-1.04-1.29-1.42c-0.43-0.48-0.9-0.91-1.43-1.27c-1.51-1.02-3.32-1.1-5.07-0.82c-3.52,0.56-7.02,1.81-10.46,2.74
		c-3.52,0.95-7.03,1.92-10.55,2.86c-2.8,0.74-5.98,1.54-8.55-0.27c-1.95-1.38-3.2-3.7-4.05-5.87c-1.39-3.54-2.2-7.32-2.83-11.04
		c-0.47-2.76-0.81-5.54-1.14-8.32c-0.39-3.33-1.03-6.71-1.04-10.08c-0.01-3.06,0.98-5.35,3.26-7.36c2.08-1.83,4.51-3.22,6.54-5.12
		c2.5-2.34,3.78-5.22,4.3-8.58c0.24-1.54,0.37-3.47,1.01-5.05c0.01-0.02,0.03-0.03,0.05-0.01c36.88,25.39,61.7,67.08,63.96,114.59
		c0,0.02-0.03,0.04-0.05,0.03C692.4,476.29,688.68,473.53,687.65,468.61z"/>
	<path class="st3" d="M554.24,243.13c1.5,1.67,3.42,2.89,5.58,3.48l-0.06,4.11c-0.55,0.01-1.11,0.01-1.66-0.01
		c0,0.15,0.01,0.3,0,0.45c0.11,0.05,0.22,0.09,0.32,0.14c0.54,0.26,1.26,0.81,1.98,1.49c2.73-1.02,5.54-1.84,8.38-2.5
		c-0.13-0.17-0.27-0.34-0.42-0.51c-0.37-0.42-0.9-0.44-1.46-0.33l-0.5-2.74c6.02-1.47,10.52-7.29,10.52-14.27
		c0-2.03-0.38-3.96-1.07-5.71l2.36-8.93l-5.65,2.04c-0.05-1.35-0.16-2.7-0.38-3.72c-0.82-3.73-2.2-5.07-2.2-5.07
		s-2.48,4.3-3.38,5.55c-0.29,0.41-0.66,0.88-1.09,1.4c-0.68-0.11-1.37-0.19-2.08-0.19c-7.45,0-13.49,6.55-13.49,14.64
		C549.95,236.67,551.6,240.46,554.24,243.13z"/>
	<path class="st3" d="M419.03,270.64c-11.4,4.05-22.25,8.58-32.23,13.46l4.77,2.34c9.74-4.76,20.31-9.17,31.43-13.13L419.03,270.64z
		"/>
	<path class="st3" d="M661.27,251.91c-13.4-2.13-27.27-3.76-41.21-4.83l-1.05,3.26c13.6,1.05,27.11,2.63,40.17,4.71L661.27,251.91z"
		/>
	<path class="st3" d="M496.43,255.01l-2.08-3.14c-13.41,2.13-26.6,4.79-39.18,7.93l3.07,2.94
		C470.51,259.69,483.36,257.09,496.43,255.01z"/>
	<path class="st3" d="M736.9,265.85L723,261.03l-3.33-11.6c0,0-4.46-17.82-5.87-20.04c-0.33-0.52-2.3-0.84-2.3-0.84l-2.1,29.63
		l-18.84-2.35c0,0-2.7-9.21-4.55-11.76c-0.5-0.69-2.64-2.14-2.64-2.14l0.21,12.19c0,0-7.59-0.33-7.96,1.47
		c-0.4,1.98,6.65,4.72,6.65,4.72l-5.51,11.03c0,0,2.35,0.06,3.05-0.25c2.94-1.29,9.43-8.69,9.43-8.69l17.25,7.03l-11.88,26.78
		c0,0,2.7,1.04,3.47,0.66c1.26-0.62,9.18-10.34,9.18-10.34l12.67-13.06l13.92,1.5c0,0,8.66,1.03,9.74-2.5
		C744.63,269.08,736.9,265.85,736.9,265.85z"/>
	<path class="st3" d="M580.59,276.88c-0.81,0.42-1.77,0.69-2.87,0.75c-1,0.06-1.9-0.06-2.7-0.32c0.68,2.36,1.38,4.74,2.56,6.91
		c1.19,2.2,2.91,4.04,4.73,5.73c0.46,0.42,0.92,0.83,1.38,1.25c0.02,0.02,0.04,0.03,0.07,0.05c0.21,0.88,0.26,1.8,0.46,2.68
		c0.17,0.75,0.46,1.4,1.04,1.9c0.08,0.07,0.16,0.13,0.24,0.19c-0.53,0.24-0.92,0.69-1.09,1.25c-0.25,0.49-0.11,1.22-0.04,1.74
		c0.17,1.21,1.44,1.78,2.54,1.73c1.99-0.08,3.89-1.38,5.12-2.87c1.26-1.54,2.28-3.95,1.52-5.92c-0.75-1.95-3.04-2.48-4.83-3.02
		c-0.93-0.28-1.86-0.63-2.66-1.17c-0.13-0.16-0.25-0.32-0.36-0.47c-0.75-1.05-1.45-2.15-2.14-3.25
		C582.21,281.84,581.02,279.46,580.59,276.88z"/>
	<path class="st3" d="M570.81,254.04c1.03-0.58,2.13-1.15,3.24-1.7c-0.75-0.5-1.48-1.08-2.23-1.61c-3.64,1.05-7.21,2.34-10.64,3.96
		c0.33,0.41,0.61,0.81,0.78,1.17c0.43,0.91,0.54,3.01,0.55,4.86C564.92,257.98,567.9,255.67,570.81,254.04z"/>
	<path class="st3" d="M542.25,291.63c13.65,3.96,13.84-4.57,13.84-4.57l4.07-21.1c0,0,0.87-6.11,0.36-7.93
		c-0.45-1.62-2.38-4.12-3.41-4.78c-0.07-0.05-0.16-0.1-0.24-0.14c0.08-1.28,0-2.58-0.29-3.85c-0.56-2.46-1.98-4.61-3.82-5.86
		c-3.79-2.58-8.51-0.11-10.35,4.33c-0.21,0.5-0.37,1.01-0.51,1.53c0.19,0.03,0.38,0.05,0.57,0.08c0.38,0.08,0.75,0.17,1.11,0.28
		c-5.6-0.56-10.76,2.97-11.83,8.31c-1.14,5.7,2.82,11.3,8.86,12.51c1.35,0.27,2.69,0.29,3.97,0.1c-1.98,0.83-4.22,1.1-6.48,0.64
		c-1.76-0.35-3.33-1.11-4.65-2.14c-1.04,5.66-1.9,10.9-1.9,10.9S529.52,287.94,542.25,291.63z"/>
	<path class="st3" d="M575.88,253.55c-0.83,0.34-1.64,0.69-2.43,1.05c-3.63,1.69-7.46,4.34-10.25,7.65
		c-0.13,1.53-0.29,2.73-0.29,2.73l-4.5,23.25c0,0,0.06,6.66-10.87,6.59c-0.05-0.05-0.11-0.09-0.16-0.14
		c-0.02,0.62-0.02,1.23-0.02,1.81c-0.01,2.61-0.26,5.22-0.77,7.78c-0.27,1.36-0.62,2.71-1.03,4.04c-0.37,1.19-1,2.44-1.05,3.71
		c-0.05,1.52,1.13,2.16,2.41,2.53c1.29,0.36,2.61,0.63,3.94,0.82c2.62,0.38,5.27,0.4,7.9,0.13c-0.12-4.14,0.1-7.93,0.85-11.99h4.47
		c0.11,1.77,0.24,3.21,0.34,5.05c0.1,1.77-0.15,4.26,1.13,5.68c1.87,2.09,5.85,0.91,8.13,0.25c1.4-0.41,2.85-1.01,3.79-2.17
		c1.13-1.39,1.24-3.24,1.18-4.96c-0.1-3.28-0.41-6.56-0.85-9.83c1.7-0.46,3.38-1.01,5.02-1.67c-5.38-5.74-9.78-13.13-10.66-19.79
		c-1.41-5.38-2.29-10.64-2.68-16.2c-0.04-0.56,1-0.12,1.04,0.44c0.38,5.44,2.15,9.94,3.53,15.21c0.06-0.01,0.13-0.02,0.21,0
		c2.05,0.56,3.72,0.46,5.79-0.26c0.8-0.28,1.55-0.68,2.25-1.15c0.75-0.51,1.76-1.26,2.05-2.17c0.35-1.08-0.69-1.86-1.28-2.62
		c-0.53-0.67-0.95-1.41-1.3-2.19c-0.75-1.66-1.13-3.44-1.51-5.21C579.6,258.87,578.67,255.25,575.88,253.55z"/>
</g>
</svg>